<svg xmlns="http://www.w3.org/2000/svg" xmlns:xlink="http://www.w3.org/1999/xlink" viewBox="0 0 17.63 17.64"><defs><style>.cls-1{fill:none;}.cls-2{clip-path:url(#clip-path);}</style><clipPath id="clip-path" transform="translate(-1.19 -1.18)"><rect class="cls-1" width="20" height="20"/></clipPath></defs><title>ic_edit</title><g id="Layer_2" data-name="Layer 2"><g id="Layer_1-2" data-name="Layer 1"><g class="cls-2"><path d="M3.83,15.29H7.57A.89.89,0,0,0,8.19,15l6.1-6.11h0L16.8,6.48a.88.88,0,0,0,0-1.25h0L13.06,1.44a.89.89,0,0,0-1.25,0h0L9.32,3.94h0L3.2,10.05a.89.89,0,0,0-.25.62v3.74A.87.87,0,0,0,3.83,15.29Zm8.6-12,2.5,2.5L13.68,7.06l-2.5-2.49ZM4.71,11,9.94,5.81,12.43,8.3,7.21,13.53H4.71Zm13.23,6H2.07a.88.88,0,0,0,0,1.76H17.94a.88.88,0,1,0,0-1.76Z" transform="translate(-1.19 -1.18)"/></g></g></g></svg>