<svg xmlns="http://www.w3.org/2000/svg" xmlns:xlink="http://www.w3.org/1999/xlink" viewBox="0 0 16.94 13.55"><defs><style>.cls-1{fill:none;}.cls-2{clip-path:url(#clip-path);}</style><clipPath id="clip-path" transform="translate(-1.59 -3.23)"><rect class="cls-1" width="20" height="20"/></clipPath></defs><title>ic_eye</title><g id="Layer_2" data-name="Layer 2"><g id="Layer_1-2" data-name="Layer 1"><g class="cls-2"><path d="M18.46,9.66c-1.71-4-4.92-6.43-8.4-6.43S3.37,5.69,1.66,9.66a.89.89,0,0,0,0,.68c1.71,4,4.93,6.44,8.4,6.44s6.69-2.47,8.4-6.44A.81.81,0,0,0,18.46,9.66Zm-8.4,5.42c-2.68,0-5.22-1.94-6.69-5.08,1.47-3.14,4-5.08,6.69-5.08S15.29,6.86,16.75,10C15.29,13.14,12.75,15.08,10.06,15.08Zm0-8.47A3.39,3.39,0,1,0,13.45,10,3.38,3.38,0,0,0,10.06,6.61Zm0,5.09a1.7,1.7,0,1,1,1.7-1.7A1.7,1.7,0,0,1,10.06,11.7Z" transform="translate(-1.59 -3.23)"/></g></g></g></svg>